<?xml version="1.0" encoding="utf-8"?>
<svg viewBox="-5.115 112.955 513.164 331.922" xmlns="http://www.w3.org/2000/svg">
  <g id="SvgjsG2042" transform="matrix(1, 0, 0, 1, 0.415705, 199.134411)">
    <path id="SvgjsPath2043" d="M 2.934 3.92 C 2.933 1.253 3.866 -0.08 5.733 -0.08 L 491.734 -0.08 C 493.602 -0.08 494.537 1.253 494.539 3.92 L 494.631 165.753 C 494.633 168.42 493.699 169.753 491.832 169.753 L 5.831 169.753 C 3.963 169.753 3.028 168.42 3.027 165.753 L 2.934 3.92 Z" stroke="rgba(50,50,50,1)" stroke-width="2" fill-opacity="1" fill="#fff9c4" style="" transform="matrix(1, 0.000758, -0.000758, 1, 0.064378, -0.188553)"/>
    <path id="SvgjsPath2044" d="M 3 25 L 213.525 25 L 221.525 17 L 221.525 0" stroke="rgba(50,50,50,1)" stroke-width="2" fill-opacity="1" fill="#fff9c4"/>
    <path id="SvgjsPath2045" d="M 0 0L 701.75 0L 701.75 169.83333333333167L 0 169.83333333333167Z" stroke="none" fill="none"/>
    <g id="SvgjsG2046" transform="matrix(1, 0, 0, 1, 3, 0)">
      <text id="SvgjsText2047" font-family="微软雅黑" text-anchor="start" font-size="13px" width="682px" fill="#323232" font-weight="700" align="top" lineheight="125%" anchor="start" family="微软雅黑" size="13px" weight="700" font-style="" opacity="1" y="27.375" transform="rotate(0)" style="white-space: pre-wrap;"><tspan id="SvgjsTspan2048" dy="16" x="10"><tspan id="SvgjsTspan2049" style="text-decoration:;">public enum ResponseCode {</tspan></tspan><tspan id="SvgjsTspan2050" dy="16" x="10"><tspan id="SvgjsTspan2051" style="text-decoration:;">    </tspan><tspan id="SvgjsTspan2052" style="text-decoration:;fill: rgb(76, 175, 80);">SUCCESS</tspan><tspan id="SvgjsTspan2053" style="text-decoration:;">(200, "Success"),</tspan></tspan><tspan id="SvgjsTspan2054" dy="16" x="10"><tspan id="SvgjsTspan2055" style="text-decoration:;">    </tspan><tspan id="SvgjsTspan2056" style="text-decoration:;fill: rgb(183, 28, 28);">EMAIL_HAS_EXISTED</tspan><tspan id="SvgjsTspan2057" style="text-decoration:;">(20001, "Email is already exsited!"),</tspan></tspan><tspan id="SvgjsTspan2058" dy="16" x="10"><tspan id="SvgjsTspan2059" style="text-decoration:;">    </tspan><tspan id="SvgjsTspan2060" style="text-decoration:;fill: rgb(211, 47, 47);">PARAM_IS_INVALID</tspan><tspan id="SvgjsTspan2061" style="text-decoration:;">(20002, "Param is invalid."),</tspan></tspan><tspan id="SvgjsTspan2062" dy="16" x="10"><tspan id="SvgjsTspan2063" style="text-decoration:;">    USER_IS_NOT_EXISTED(20003, "User is not existed or password is incorrect"),</tspan></tspan><tspan id="SvgjsTspan2064" dy="16" x="10"><tspan id="SvgjsTspan2065" style="text-decoration:;">    USER_HAS_NOT_LOGIN(20004, "User is not login."),</tspan></tspan><tspan id="SvgjsTspan2066" dy="16" x="10"><tspan id="SvgjsTspan2067" style="text-decoration:;">    CHECK_TOKEN_FAIL(20004, "Token verification failed, please log in again.")</tspan></tspan><tspan id="SvgjsTspan2068" dy="16" x="10"><tspan id="SvgjsTspan2069" style="text-decoration:;">}</tspan></tspan></text>
    </g>
    <g id="SvgjsG2070" transform="matrix(1, 0, 0, 1, 3, 0)">
      <text id="SvgjsText2071" font-family="微软雅黑" text-anchor="start" font-size="13px" width="201px" fill="#323232" font-weight="700" align="middle" lineheight="125%" anchor="start" family="微软雅黑" size="13px" weight="700" font-style="" opacity="1" y="1.375" transform="rotate(0)" style="white-space: pre-wrap;"><tspan id="SvgjsTspan2072" dy="16" x="10"><tspan id="SvgjsTspan2073" style="text-decoration:;">New Response</tspan></tspan></text>
    </g>
  </g>
</svg>